<svg xmlns="http://www.w3.org/2000/svg" viewBox="0 0 29.04 27.08"><defs><style>.cls-1{fill:#223467;}</style></defs><g id="Capa_2" data-name="Capa 2"><g id="Capa_1-2" data-name="Capa 1"><path class="cls-1" d="M13.92,9H1.51c-.28,0-.34.09-.34.36q0,6.35,0,12.71a1.48,1.48,0,0,0,1.65,1.64H15.14c.5,0,.74.16.74.49s-.24.49-.74.49H2.83A2.45,2.45,0,0,1,.2,22.06V5.76A2.45,2.45,0,0,1,2.82,3.14c.48,0,1,0,1.44,0,.31,0,.37-.09.35-.38a4,4,0,0,1,0-1,2,2,0,0,1,3.86.35c0,.29,0,.57,0,.86,0,.14,0,.19.19.19h3.06c.16,0,.18-.07.18-.2a6.2,6.2,0,0,1,0-1.22,2,2,0,0,1,3.86.33,8.77,8.77,0,0,1,0,.89c0,.16,0,.2.2.2,1,0,2,0,3,0,.2,0,.22-.08.22-.25a5.67,5.67,0,0,1,.05-1.16,2,2,0,0,1,3.87.37c0,.27,0,.55,0,.82s.05.23.22.22c.55,0,1.11,0,1.66,0a2.45,2.45,0,0,1,2.53,2.53v8.08a.79.79,0,0,1,0,.22.48.48,0,0,1-1,0,5,5,0,0,1,0-.55c0-1.35,0-2.7,0-4,0-.27-.06-.36-.35-.36Zm0-1H26.35c.26,0,.32-.07.32-.32,0-.68,0-1.35,0-2a1.47,1.47,0,0,0-1.59-1.58H21.24c-1.07,0-1.07,0-.95,1.08a1,1,0,0,0,.86.87.9.9,0,0,0,1-.61c.08-.36.26-.4.55-.36a1.22,1.22,0,0,0,.27,0c.21,0,.27.05.24.25a2,2,0,0,1-1.85,1.71,2,2,0,0,1-2-1.54,4.51,4.51,0,0,1,0-1.1c0-.23-.06-.31-.3-.31H13.9c-.31,0-.74-.14-.91.06s0,.64-.05,1v.06a1,1,0,0,0,.85.85.89.89,0,0,0,1-.58c.09-.43.34-.41.65-.39a1.47,1.47,0,0,0,.21,0c.21,0,.24.06.22.24A2,2,0,0,1,12,5.53a5,5,0,0,1,0-1.16c0-.21-.06-.26-.25-.26-.76,0-1.52,0-2.27,0H5.86c-.22,0-.29,0-.28.27s0,.51,0,.77a1,1,0,0,0,.84.92.9.9,0,0,0,1-.59c.09-.38.29-.42.6-.38a1.22,1.22,0,0,0,.27,0c.2,0,.22.07.2.23a2,2,0,0,1-3.85.24A3.85,3.85,0,0,1,4.61,4.5c0-.29,0-.41-.37-.39-.48,0-1,0-1.44,0A1.48,1.48,0,0,0,1.18,5.73c0,.66,0,1.33,0,2,0,.29.09.33.34.33ZM6.54,3.14c.26,0,.53,0,.79,0s.23,0,.22-.19,0-.56,0-.83a1,1,0,0,0-1.95,0c0,.26,0,.53,0,.8s0,.23.22.22S6.29,3.14,6.54,3.14Zm7.36,0h.82c.1,0,.18,0,.18-.14,0-.33,0-.66,0-1a.89.89,0,0,0-.61-.77.92.92,0,0,0-1,.22c-.46.46-.32,1.05-.25,1.57,0,.23.48,0,.73.1Zm7.42,0c.26,0,.71.14.87-.07s0-.64.06-1a0,0,0,0,0,0,0,1,1,0,0,0-1-.89,1,1,0,0,0-.95.9c0,.3,0,.59,0,.89,0,.14.05.17.18.17S21,3.14,21.32,3.14Z"/><path class="cls-1" d="M15.14,24.9H2.83A2.66,2.66,0,0,1,0,22.06V5.76A2.65,2.65,0,0,1,2.82,2.94h.4c.35,0,.7,0,1,0h.14a.67.67,0,0,0,0-.16,4,4,0,0,1,0-1.09,2.16,2.16,0,0,1,4.26.4c0,.28,0,.57,0,.85h3c0-.13,0-.25,0-.37a3.85,3.85,0,0,1,.06-.89A2.15,2.15,0,0,1,16.07,2q0,.41,0,.9a0,0,0,0,0,0,0h0c1,0,2,0,3,0h0a.11.11,0,0,0,0-.06c0-.1,0-.21,0-.31a3.85,3.85,0,0,1,.06-.89,2.15,2.15,0,0,1,4.25.4,7.84,7.84,0,0,1,0,.84V3h1.69a2.66,2.66,0,0,1,2.73,2.73v8.09a1.56,1.56,0,0,1,0,.24.67.67,0,0,1-.66.6.65.65,0,0,1-.7-.62c0-.14,0-.28,0-.42V12.35c0-1,0-2,0-3a.85.85,0,0,0,0-.15h-25c-.1,0-.13,0-.13,0s0,0,0,.14V22.08a1.3,1.3,0,0,0,1.46,1.44H15.14c.77,0,.93.38.93.69a.65.65,0,0,1-.17.46A1.06,1.06,0,0,1,15.14,24.9ZM3.66,3.33H2.82A2.25,2.25,0,0,0,.39,5.76v16.3A2.26,2.26,0,0,0,2.83,24.5H15.14a.68.68,0,0,0,.48-.12s.06-.07.06-.18,0-.29-.54-.29H2.83A1.68,1.68,0,0,1,1,22.08V18.9q0-4.77,0-9.53a.6.6,0,0,1,.13-.43.52.52,0,0,1,.42-.12H26.33a.56.56,0,0,1,.41.12.6.6,0,0,1,.12.43c0,1,0,2,0,3v1.21a2.41,2.41,0,0,0,0,.38c0,.16.12.29.29.27a.28.28,0,0,0,.29-.27.57.57,0,0,0,0-.13V5.67a2.24,2.24,0,0,0-2.33-2.33H23.46a.45.45,0,0,1-.34-.11A.41.41,0,0,1,23,2.91c0-.27,0-.55,0-.81A1.77,1.77,0,0,0,21.42.4a1.8,1.8,0,0,0-1.87,1.38,2.93,2.93,0,0,0,0,.79v.32a.46.46,0,0,1-.11.35.41.41,0,0,1-.32.1h-3a.4.4,0,0,1-.32-.11.41.41,0,0,1-.09-.3q0-.48,0-.87a1.76,1.76,0,0,0-3.48-.3,3.05,3.05,0,0,0,0,.8V3c0,.26-.14.39-.38.39H8.72a.51.51,0,0,1-.3-.1.39.39,0,0,1-.09-.3q0-.42,0-.84A1.79,1.79,0,0,0,6.71.4,1.76,1.76,0,0,0,4.85,1.78a3.41,3.41,0,0,0,0,1,.61.61,0,0,1-.12.48.55.55,0,0,1-.45.12ZM26.35,8.24H1.5a.52.52,0,0,1-.41-.13A.54.54,0,0,1,1,7.71c0-.45,0-.9,0-1.35V5.73A1.67,1.67,0,0,1,2.8,3.92h.45c.32,0,.65,0,1,0A.6.6,0,0,1,4.68,4a.59.59,0,0,1,.13.48,3.41,3.41,0,0,0,.05,1A1.75,1.75,0,0,0,6.68,6.86,1.79,1.79,0,0,0,8.32,5.31h0a1,1,0,0,1-.3,0c-.25,0-.32,0-.38.23a1.1,1.1,0,0,1-1.24.75,1.19,1.19,0,0,1-1-1.11V4.79c0-.13,0-.26,0-.39A.46.46,0,0,1,5.48,4a.41.41,0,0,1,.38-.12c.9,0,1.81,0,2.72,0H10c.56,0,1.11,0,1.66,0a.42.42,0,0,1,.35.11.45.45,0,0,1,.11.34v.27a3.34,3.34,0,0,0,0,.84,1.78,1.78,0,0,0,1.73,1.38H14a1.78,1.78,0,0,0,1.65-1.54v0h-.23c-.34,0-.41,0-.47.24a1.09,1.09,0,0,1-1.22.73,1.2,1.2,0,0,1-1-1s0-.07,0-.1a1.67,1.67,0,0,0,0-.31,1,1,0,0,1,.12-.79c.19-.22.51-.18.79-.15a2.48,2.48,0,0,0,.27,0H19A.48.48,0,0,1,19.4,4a.52.52,0,0,1,.11.38v.2a3.4,3.4,0,0,0,0,.85,1.73,1.73,0,0,0,1.81,1.39A1.8,1.8,0,0,0,23,5.33v0h0a.91.91,0,0,1-.33,0c-.23,0-.28,0-.33.21a1.09,1.09,0,0,1-1.23.77,1.2,1.2,0,0,1-1-1c-.07-.6-.1-.9.08-1.1s.47-.2,1.06-.2h3.83A1.68,1.68,0,0,1,26.86,5.7c0,.23,0,.45,0,.68,0,.45,0,.89,0,1.34a.49.49,0,0,1-.11.4A.53.53,0,0,1,26.35,8.24Zm-4-.4h4a.28.28,0,0,0,.12,0V7.73c0-.45,0-.9,0-1.35V5.71a1.28,1.28,0,0,0-1.39-1.39H21.24a2.15,2.15,0,0,0-.77.06,1.91,1.91,0,0,0,0,.8.82.82,0,0,0,.68.7.72.72,0,0,0,.8-.46.59.59,0,0,1,.76-.52H23a.46.46,0,0,1,.37.1.42.42,0,0,1,.08.38,2.18,2.18,0,0,1-2,1.87,2.14,2.14,0,0,1-2.21-1.69,3.4,3.4,0,0,1-.06-.95V4.42c0-.07,0-.1,0-.11H13.9l-.32,0c-.15,0-.39,0-.44,0s-.05.29,0,.49,0,.25,0,.36a.82.82,0,0,0,.67.72c.33,0,.73-.13.79-.43.12-.59.54-.57.84-.55h.18A.44.44,0,0,1,16,5a.42.42,0,0,1,.09.38,2.15,2.15,0,0,1-4.24.2,3.36,3.36,0,0,1-.06-.94c0-.09,0-.18,0-.26s0,0,0-.06h-6v.06c0,.14,0,.29,0,.43a1.93,1.93,0,0,0,0,.34.8.8,0,0,0,.67.74.72.72,0,0,0,.8-.45.63.63,0,0,1,.81-.53H8.3A.4.4,0,0,1,8.63,5a.45.45,0,0,1,.08.37,2.16,2.16,0,0,1-2,1.89A2.2,2.2,0,0,1,4.47,5.61a3.86,3.86,0,0,1,0-1.12,1.07,1.07,0,0,0,0-.18H4.26c-.34,0-.69,0-1,0H2.8A1.29,1.29,0,0,0,1.37,5.73c0,.21,0,.42,0,.63,0,.45,0,.91,0,1.37a.39.39,0,0,0,0,.12h21ZM21.9,3.38a2.58,2.58,0,0,1-.29,0,1.3,1.3,0,0,0-.27,0h-.87a.41.41,0,0,1-.29-.1A.36.36,0,0,1,20.09,3V2.6c0-.18,0-.36,0-.53A1.18,1.18,0,0,1,21.24,1a1.2,1.2,0,0,1,1.2,1.07V2.1c0,.1,0,.2,0,.3a1.15,1.15,0,0,1-.11.79A.52.52,0,0,1,21.9,3.38Zm-.52-.44.28,0C21.77,3,22,3,22,3a1.17,1.17,0,0,0,0-.52c0-.12,0-.24,0-.35a.79.79,0,0,0-.78-.71h0a.78.78,0,0,0-.76.71c0,.17,0,.34,0,.5a2,2,0,0,1,0,.35h.9Zm-8.18.42c-.19,0-.39,0-.42-.29l0-.14a1.74,1.74,0,0,1,.33-1.6,1.17,1.17,0,0,1,2,.67c0,.22,0,.44,0,.65a1.93,1.93,0,0,0,0,.34.33.33,0,0,1-.09.25.36.36,0,0,1-.29.1h-1a1.3,1.3,0,0,0-.27,0Zm0-.34Zm0-.06a.74.74,0,0,0,.21,0,1.63,1.63,0,0,1,.38,0,.11.11,0,0,0,.08,0h.87v-.3a4,4,0,0,0,0-.6.74.74,0,0,0-.49-.61.74.74,0,0,0-.84.18c-.34.35-.27.79-.21,1.26Zm-7.39.38a.37.37,0,0,1-.28-.1.4.4,0,0,1-.1-.33v-.8a1.18,1.18,0,0,1,2.35,0,2.94,2.94,0,0,1,0,.42c0,.14,0,.27,0,.41a.4.4,0,0,1-.1.3.42.42,0,0,1-.32.1H5.77Zm.8-2a.78.78,0,0,0-.78.75c0,.13,0,.25,0,.38a2.94,2.94,0,0,1,0,.42V3H7.35V2.13A.79.79,0,0,0,6.57,1.38Z"/><path class="cls-1" d="M16.51,20.7a6.17,6.17,0,1,1,6.2,6.18A6.16,6.16,0,0,1,16.51,20.7Zm11.45,0A5.29,5.29,0,1,0,22.72,26,5.3,5.3,0,0,0,28,20.72Z"/><path class="cls-1" d="M22.72,27.08h0a6.4,6.4,0,0,1-6.4-6.38,6.37,6.37,0,0,1,6.36-6.35h0A6.4,6.4,0,0,1,29,20.74a6.39,6.39,0,0,1-6.32,6.34ZM16.51,20.7h.19a6,6,0,0,0,6,6h0a6,6,0,0,0,5.92-5.94,6,6,0,0,0-6-6h0a6,6,0,0,0-6,5.95Zm6.18,5.5a5.48,5.48,0,0,1-3.89-1.61,5.4,5.4,0,0,1-1.61-3.83,5.52,5.52,0,0,1,5.49-5.53h0a5.36,5.36,0,0,1,3.84,1.61,5.51,5.51,0,0,1,1.62,3.88h0a5.48,5.48,0,0,1-5.44,5.48Zm0-10.57h0a5.06,5.06,0,0,0-5.09,5.13,5,5,0,0,0,1.49,3.55,5.1,5.1,0,0,0,3.61,1.49h0a5.07,5.07,0,0,0,5-5.08h0a5,5,0,0,0-1.5-3.6A5,5,0,0,0,22.7,15.63Z"/><path class="cls-1" d="M5.09,11.47h.7c.21,0,.3,0,.29.27,0,.49,0,1,0,1.47,0,.17,0,.23-.22.22H4.33c-.15,0-.22,0-.22-.2,0-.52,0-1,0-1.55,0-.16,0-.22.21-.21Z"/><path class="cls-1" d="M5.87,13.63h0c-.5,0-1,0-1.52,0a.43.43,0,0,1-.31-.1.38.38,0,0,1-.1-.3c0-.52,0-1,0-1.55a.42.42,0,0,1,.1-.32.43.43,0,0,1,.31-.09H5.77a.5.5,0,0,1,.4.1.47.47,0,0,1,.11.38c0,.47,0,.94,0,1.46a.46.46,0,0,1-.1.32A.43.43,0,0,1,5.87,13.63Zm-.76-.4h.77v0c0-.52,0-1,0-1.48,0,0,0-.06,0-.07H5.8a4.17,4.17,0,0,1-.5,0h-1c0,.52,0,1,0,1.57h.8Z"/><path class="cls-1" d="M9.52,11.47h.77c.16,0,.2,0,.2.21q0,.77,0,1.53c0,.16,0,.23-.22.22H8.74c-.17,0-.22,0-.22-.22q0-.75,0-1.5c0-.18,0-.26.24-.24Z"/><path class="cls-1" d="M8.73,13.63a.4.4,0,0,1-.3-.1.46.46,0,0,1-.1-.33c0-.49,0-1,0-1.49a.4.4,0,0,1,.11-.35.43.43,0,0,1,.33-.09h1.51a.41.41,0,0,1,.3.09.42.42,0,0,1,.11.32c0,.51,0,1,0,1.52a.42.42,0,0,1-.11.33.44.44,0,0,1-.31.1c-.51,0-1,0-1.52,0Zm0-.39h1.57v0c0-.51,0-1,0-1.54H8.72v0c0,.51,0,1,0,1.51Z"/><path class="cls-1" d="M14.9,12.46c0,.25,0,.51,0,.76s0,.22-.2.21H13.14c-.16,0-.21,0-.2-.21V11.7c0-.17,0-.24.21-.23h1.53c.18,0,.23,0,.22.22S14.9,12.2,14.9,12.46Z"/><path class="cls-1" d="M14.72,13.63h0c-.52,0-1,0-1.55,0a.41.41,0,0,1-.31-.1.43.43,0,0,1-.1-.31c0-.51,0-1,0-1.52a.47.47,0,0,1,.1-.33.46.46,0,0,1,.32-.1h1.52a.43.43,0,0,1,.32.11.41.41,0,0,1,.1.32c0,.17,0,.35,0,.52v.47c0,.17,0,.35,0,.52a.45.45,0,0,1-.1.32A.4.4,0,0,1,14.72,13.63Zm-.85-.4h.83V11.66H13.13v0c0,.51,0,1,0,1.54h.74Z"/><path class="cls-1" d="M18.36,11.49c.3,0,.71-.12.88,0s.05.59.07.91,0,.53,0,.79,0,.22-.2.21H17.55c-.16,0-.21,0-.2-.21,0-.51,0-1,0-1.52,0-.21.08-.24.25-.23h.77Z"/><path class="cls-1" d="M19.13,13.63h0c-.52,0-1,0-1.55,0a.36.36,0,0,1-.41-.41c0-.48,0-1,0-1.52a.4.4,0,0,1,.1-.33.46.46,0,0,1,.35-.1h1a.94.94,0,0,1,.73.1c.22.19.18.49.15.76,0,.1,0,.2,0,.29s0,.27,0,.41a2.41,2.41,0,0,0,0,.38.45.45,0,0,1-.1.32A.4.4,0,0,1,19.13,13.63Zm-.85-.4h.84c0-.14,0-.27,0-.4s0-.27,0-.4,0-.22,0-.34,0-.37,0-.42-.29,0-.43,0l-.32,0-.23,0h-.59v0c0,.52,0,1.05,0,1.54h.74Z"/><path class="cls-1" d="M21.76,12.38c0-.26-.14-.68.06-.86s.58,0,.89,0h.82c.15,0,.19,0,.19.19,0,.52,0,1,0,1.56,0,.15,0,.22-.2.21H22c-.16,0-.21,0-.2-.21S21.76,12.69,21.76,12.38Z"/><path class="cls-1" d="M22,13.63a.37.37,0,0,1-.29-.1.41.41,0,0,1-.1-.31,5.42,5.42,0,0,0,0-.57v-.29h0a1.21,1.21,0,0,0,0-.26.76.76,0,0,1,.14-.71,1,1,0,0,1,.75-.12h1.09a.39.39,0,0,1,.29.09.42.42,0,0,1,.1.3q0,.78,0,1.56a.41.41,0,0,1-.1.31.43.43,0,0,1-.3.1q-.78,0-1.56,0Zm.71-.4h.87v0c0-.52,0-1,0-1.55h-.82l-.31,0a1,1,0,0,0-.45,0c-.05.05,0,.24,0,.37a2.11,2.11,0,0,1,0,.35v.26c0,.21,0,.39,0,.58h.71Z"/><path class="cls-1" d="M6.08,16.42c0,.26.14.69-.07.88s-.6.05-.91.05-.53,0-.79,0-.2,0-.2-.19q0-.8,0-1.59c0-.16.07-.18.2-.18H5.87c.17,0,.22,0,.21.21S6.08,16.11,6.08,16.42Z"/><path class="cls-1" d="M5.68,17.58l-.3,0H4.77a3.53,3.53,0,0,0-.46,0A.39.39,0,0,1,4,17.46a.42.42,0,0,1-.1-.3c0-.53,0-1.06,0-1.59A.37.37,0,0,1,4,15.29a.43.43,0,0,1,.31-.1H5.87a.4.4,0,0,1,.31.1.42.42,0,0,1,.1.32c0,.16,0,.33,0,.52v.3h0c0,.07,0,.17,0,.26a.79.79,0,0,1-.15.74A.65.65,0,0,1,5.68,17.58Zm-.56-.43.3,0a1.08,1.08,0,0,0,.46,0c.06,0,0-.25,0-.4a1.94,1.94,0,0,1,0-.34v-.82H4.31c0,.54,0,1.05,0,1.56h.46c.11,0,.22,0,.33,0Z"/><path class="cls-1" d="M9.51,15.39h.76c.18,0,.22.06.22.22q0,.77,0,1.53c0,.16,0,.22-.2.21q-.78,0-1.56,0c-.17,0-.21-.05-.21-.21q0-.77,0-1.53c0-.16,0-.23.22-.22Z"/><path class="cls-1" d="M8.71,17.55a.37.37,0,0,1-.28-.1.41.41,0,0,1-.1-.31c0-.51,0-1,0-1.52a.45.45,0,0,1,.1-.33.44.44,0,0,1,.32-.1h1.51a.43.43,0,0,1,.32.1.42.42,0,0,1,.11.33c0,.5,0,1,0,1.52a.41.41,0,0,1-.1.31.44.44,0,0,1-.31.1c-.51,0-1,0-1.55,0Zm.73-.4h.85c0-.52,0-1,0-1.54v0H8.72v0c0,.51,0,1,0,1.54h.72Z"/><path class="cls-1" d="M14.9,16.37c0,.26,0,.51,0,.77s-.06.22-.23.21c-.5,0-1,0-1.52,0-.16,0-.22,0-.22-.2q0-.78,0-1.56c0-.16.06-.2.22-.2h1.53c.16,0,.23,0,.22.22S14.9,16.12,14.9,16.37Z"/><path class="cls-1" d="M14.7,17.55h0c-.51,0-1,0-1.52,0a.39.39,0,0,1-.31-.1.42.42,0,0,1-.1-.3q0-.78,0-1.56a.36.36,0,0,1,.41-.4h1.52a.42.42,0,0,1,.33.11.43.43,0,0,1,.1.32c0,.17,0,.34,0,.52v.47c0,.17,0,.34,0,.51a.42.42,0,0,1-.1.32A.37.37,0,0,1,14.7,17.55Zm-.76-.4h.76V15.58H13.14c0,.56,0,1.06,0,1.57h.81Z"/><path class="cls-1" d="M5.09,19.31c.23,0,.46,0,.7,0s.3,0,.29.27c0,.49,0,1,0,1.47,0,.17,0,.23-.22.23-.51,0-1,0-1.53,0-.15,0-.22,0-.22-.19q0-.78,0-1.56c0-.16,0-.22.21-.21S4.83,19.31,5.09,19.31Z"/><path class="cls-1" d="M5.88,21.47H4.33a.4.4,0,0,1-.31-.1.38.38,0,0,1-.1-.3c0-.52,0-1,0-1.55a.39.39,0,0,1,.1-.31.4.4,0,0,1,.31-.1H5.77a.51.51,0,0,1,.4.1.47.47,0,0,1,.11.38c0,.47,0,.94,0,1.46a.46.46,0,0,1-.1.32A.4.4,0,0,1,5.88,21.47Zm-.75-.4h.75v0c0-.53,0-1,0-1.48,0,0,0-.07,0-.08H5.8a4.21,4.21,0,0,1-.5,0h-1c0,.52,0,1,0,1.57h.82Z"/><path class="cls-1" d="M9.51,19.31c.25,0,.51,0,.76,0s.22,0,.22.2q0,.79,0,1.59c0,.13,0,.18-.17.17H8.7c-.14,0-.18-.05-.17-.18V19.5c0-.14,0-.2.19-.19S9.24,19.31,9.51,19.31Z"/><path class="cls-1" d="M10.33,21.47H8.7a.41.41,0,0,1-.28-.09.43.43,0,0,1-.09-.29V19.5a.4.4,0,0,1,.1-.29.4.4,0,0,1,.29-.1h1.55a.45.45,0,0,1,.32.1.42.42,0,0,1,.1.3c0,.53,0,1.06,0,1.58a.4.4,0,0,1-.1.29A.4.4,0,0,1,10.33,21.47Zm-.89-.4h.85c0-.55,0-1.06,0-1.57H8.72c0,.55,0,1.06,0,1.56Z"/><path class="cls-1" d="M23.23,19.25a2.05,2.05,0,0,0,.92,2.26,9,9,0,0,1,.76.75c.11.1.1.16,0,.27-.53.59-.53.59-1.09,0L22.4,21.14a.42.42,0,0,1-.15-.35c0-.9,0-1.81,0-2.72,0-.19.06-.23.25-.23.74,0,.74,0,.74.74Z"/><path class="cls-1" d="M24.38,23.18c-.21,0-.38-.17-.69-.48l-.46-.45-1-1a.64.64,0,0,1-.21-.49c0-.9,0-1.81,0-2.71a.46.46,0,0,1,.1-.33.65.65,0,0,1,.51-.11c.32,0,.49,0,.62.14s.15.37.15.8v.72a1.83,1.83,0,0,0,.85,2.05,5.88,5.88,0,0,1,.51.48l.27.28a.35.35,0,0,1,0,.55c-.3.34-.45.51-.67.52ZM22.44,18v0c0,.91,0,1.82,0,2.72a.26.26,0,0,0,.1.21l1,1,.46.45c.17.18.35.36.41.36a1.68,1.68,0,0,0,.38-.37v0l-.28-.28a3.88,3.88,0,0,0-.46-.45,2.27,2.27,0,0,1-1-2.44v-.64a2,2,0,0,0,0-.52,1.83,1.83,0,0,0-.49,0Z"/></g></g></svg>