<svg xmlns="http://www.w3.org/2000/svg" viewBox="0 0 22.43 29.42"><defs><style>.cls-1{fill:#223467;}</style></defs><g id="Capa_2" data-name="Capa 2"><g id="Capa_1-2" data-name="Capa 1"><path class="cls-1" d="M3.21,26.21H1.9A1.73,1.73,0,0,1,0,24.29V2.16C0,.58.58,0,2.14,0h15c1.43,0,2.05.62,2.05,2V3.21h1.35A1.73,1.73,0,0,1,22.43,5.1V27.53a1.7,1.7,0,0,1-1.87,1.88q-7.74,0-15.5,0a1.7,1.7,0,0,1-1.85-1.85Zm14.4-1.56c0-.22,0-.36,0-.5q0-11.05,0-22.09c0-.44-.16-.5-.54-.5-5,0-10,0-15,0-.48,0-.58.15-.58.61q0,10.92,0,21.84c0,.64,0,.64.63.64H17.61ZM4.79,26.21c0,.41,0,.74,0,1.06s.1.6.58.6q7.46,0,14.92,0c.48,0,.59-.14.58-.6q0-10.95,0-21.89a.91.91,0,0,0,0-.33c0-.1-.13-.24-.21-.25-.47,0-.93,0-1.42,0V24.17c0,1.43-.61,2-2.05,2H4.79Z"/><path class="cls-1" d="M9.62,14.91c1.54,0,3.08,0,4.62,0a1.08,1.08,0,0,1,.76.46.94.94,0,0,1-.1.79.93.93,0,0,1-.67.29q-4.63,0-9.25,0a.79.79,0,1,1,0-1.57Z"/><path class="cls-1" d="M9.6,21.18H5.08c-.63,0-1-.28-1-.78s.34-.77,1-.77h9.06c.6,0,1,.31,1,.78s-.35.77-1,.77Z"/><path class="cls-1" d="M9.62,10.21h4.52c.62,0,1,.29,1,.78s-.36.77-1,.77h-9c-.74,0-1.13-.48-.9-1.08A.74.74,0,0,1,5,10.21Z"/><path class="cls-1" d="M8.44,7H5c-.59,0-.92-.29-.92-.77s.33-.78.92-.79H11.9c.6,0,.9.28.9.78s-.31.78-.91.78Z"/></g></g></svg>