<svg xmlns="http://www.w3.org/2000/svg" viewBox="0 0 25.27 34.73"><defs><style>.cls-1{fill:#223467;}</style></defs><g id="Capa_2" data-name="Capa 2"><g id="Capa_1-2" data-name="Capa 1"><path class="cls-1" d="M14.21,9.25H1.28A1.27,1.27,0,0,0,0,10.48C0,11.75,0,13,0,14.29v19.1a1.28,1.28,0,0,0,1.25,1.33H14.33a1.07,1.07,0,0,0,.49-.11,1.32,1.32,0,0,0,.74-1.26V10.62A1.29,1.29,0,0,0,14.21,9.25ZM14,32.87a.26.26,0,0,1-.06.2.32.32,0,0,1-.23.07H1.91a.31.31,0,0,1-.26-.08.3.3,0,0,1-.07-.24c0-1,0-2.08,0-3.11,0-.15,0-.31.3-.31H13.72c.13,0,.27,0,.27.26Zm0-5.4c0,.31-.13.36-.36.36H1.93c-.29,0-.35-.13-.35-.36,0-1.29,0-2.59,0-3.89V19.69a.28.28,0,0,0,0-.09V13.25q0-1,0-2.07c0-.24.09-.33.33-.33H13.63c.26,0,.36.1.36.36Z"/><path class="cls-1" d="M7.8,32.17c-.25,0-.49,0-.74,0s-.16,0-.16-.16c0-.49,0-1,0-1.46,0-.14.06-.17.18-.17.47,0,.94,0,1.42,0,.13,0,.17.05.17.18q0,.72,0,1.44c0,.15-.06.18-.19.17S8,32.17,7.8,32.17Z"/><path class="cls-1" d="M25.27,10.75a.91.91,0,0,1-.19.66.8.8,0,0,1-.52.27h-.09a.75.75,0,0,1-.49-.17.88.88,0,0,1-.31-.6,10.38,10.38,0,0,0-9.34-9.34h-.17l-.23,0A.78.78,0,0,1,13.18.7.78.78,0,0,1,14,0h.15A12.32,12.32,0,0,1,22,3.68,11.78,11.78,0,0,1,25.27,10.75Z"/><path class="cls-1" d="M22.21,10.45a.81.81,0,0,1-.68,1h-.09a.73.73,0,0,1-.48-.15.85.85,0,0,1-.33-.56,7,7,0,0,0-1.18-3.15A7.24,7.24,0,0,0,14.2,4.43a.84.84,0,0,1-.72-.49.69.69,0,0,1,.12-.77.76.76,0,0,1,.63-.29h.16a8.74,8.74,0,0,1,7.38,5.76,6.43,6.43,0,0,1,.33,1.18,1.91,1.91,0,0,1,.06.33s0,.11,0,.15Z"/><path class="cls-1" d="M19.14,10.43v0a.8.8,0,0,1-.7.84h-.1a.79.79,0,0,1-.78-.7,3.54,3.54,0,0,0-1-2.07,3.59,3.59,0,0,0-2.26-1.09.8.8,0,0,1-.79-.86.75.75,0,0,1,.34-.55.89.89,0,0,1,.5-.14h.15a5.11,5.11,0,0,1,4.58,4.36C19.13,10.33,19.13,10.38,19.14,10.43Z"/></g></g></svg>